<?xml version="1.0" encoding="utf-8"?>
<!-- Generator: Adobe Illustrator 15.0.0, SVG Export Plug-In . SVG Version: 6.00 Build 0)  -->
<!DOCTYPE svg PUBLIC "-//W3C//DTD SVG 1.1//EN" "http://www.w3.org/Graphics/SVG/1.1/DTD/svg11.dtd">
<svg version="1.1" id="Layer_1" xmlns="http://www.w3.org/2000/svg" xmlns:xlink="http://www.w3.org/1999/xlink" x="0px" y="0px"
	 width="3039.946px" height="579.996px" viewBox="0 0 3039.946 579.996" enable-background="new 0 0 3039.946 579.996"
	 xml:space="preserve">
<g>
	<path d="M118.5,341.496v113.5c-30,0-60.5,0-91,0v-350c71.5,0,146.5,0,218,0c0,29.5,0,50,0,80h-127v76.5H231c0,30,0,49,0,80H118.5z"
		/>
	<path d="M452.995,336.996v-232c28.5,0,58.5,0,86.5,0v233.5c0,77-67.5,121.5-139.5,121.5c-71.5,0-139-44.5-139-121.5v-233.5
		c28,0,57.5,0,85.5,0v232c0,28.5,27.5,42.5,53.5,42.5S452.995,365.496,452.995,336.996z"/>
	<path d="M667.988,282.996v172c-31,0-62,0-92.5,0v-351.5h32.5l177,173v-171.5c30.5,0,61,0,91.5,0v350.5h-32L667.988,282.996z"/>
	<path d="M1015.484,219.496h45.5l1.5-16.5c4-33.5,22-108.5,108.5-108.5c17,0,32.5,3.5,41.5,8l-12,54c-6.5-2.5-14-4.5-24-4.5
		c-24.5,0-36.5,18-39.5,45.5l-3,22h51v52.5h-57.5l-11,89.5c-7.5,61-28,109-99,109c-20.5-0.5-38-4.5-45.5-8.5l10.5-53
		c7.5,3,15.5,4,23.5,4.5c25-0.5,33.5-14.5,40.5-71.5l8-70h-39V219.496z"/>
	<path d="M1446.98,346.496c0,32,1,58,2,78.5h-66l-3.5-34.5h-1.5c-9.5,15-32.5,40-76.5,40c-50,0-86-31-86-106.5v-143.5h76v131.5
		c0,35.5,11.5,57,38.5,57c21,0,33.5-14.5,38-26.5c2-4.5,3-10,3-16.5v-145.5h76V346.496z"/>
	<path d="M1495.476,258.496c0-30.5-1-56-2-78h66l3.5,34h1.5c10-16,34.5-39.5,75.5-39.5c50,0,87.5,33.5,87.5,105.5v144.5h-76v-135.5
		c0-31.5-11-53-38.5-53c-21,0-33.5,14.5-39,28.5c-2,5-2.5,12-2.5,19v141h-76V258.496z"/>
	<path d="M1959.476,418.496c-13.5,6.5-39,11.5-68,11.5c-79,0-129.5-48.5-129.5-125c0-71.5,49-130,140-130c20,0,42,3.5,58,9.5
		l-12,56.5c-9-4-22.5-7.5-42.5-7.5c-40,0-66,28.5-65.5,68.5c0,44.5,30,68.5,67,68.5c18,0,32-3,43.5-8L1959.476,418.496z"/>
	<path d="M2081.966,114.496v66h54.5v56h-54.5v88.5c0,29.5,7.5,43,30,43c10.5,0,15.5-0.5,22.5-2l0.5,57.5c-9.5,3.5-28,6.5-49,6.5
		c-24.5,0-45-8.5-57.5-21c-14-14.5-21-38-21-72.5v-100h-32.5v-56h32.5v-45.5L2081.966,114.496z"/>
	<path d="M2246.46,112.496c0,21-15.5,38-41,38c-24,0-39.5-17-39.5-38c0-21.5,16-38,40.5-38S2245.96,90.996,2246.46,112.496z
		 M2167.96,424.996v-244.5h76v244.5H2167.96z"/>
	<path d="M2533.954,299.996c0,89.5-63.5,130.5-129,130.5c-71.5,0-126.5-47-126.5-126c0-79.5,52-130,131-130
		C2483.954,174.496,2533.954,225.996,2533.954,299.996z M2356.954,302.496c0,42,17.5,73.5,50,73.5c30,0,48.5-29.5,48.5-74
		c0-36-14-73-48.5-73C2370.954,228.996,2356.954,266.496,2356.954,302.496z"/>
	<path d="M2568.452,258.496c0-30.5-1-56-2-78h66l3.5,34h1.5c10-16,34.5-39.5,75.5-39.5c50,0,87.5,33.5,87.5,105.5v144.5h-76v-135.5
		c0-31.5-11-53-38.5-53c-21,0-33.5,14.5-39,28.5c-2,5-2.5,12-2.5,19v141h-76V258.496z"/>
	<path d="M2848.45,358.996c14,8.5,43,18,65.5,18c23,0,32.5-7.5,32.5-20c0-13-7.5-19-35.5-28.5c-51-17-70.5-44.5-70-73.5
		c0-46,39-80.5,99.5-80.5c28.5,0,53.5,7,68.5,14.5l-13,52.5c-11-6-32.5-14-53-14c-18.5,0-29,7.5-29,19.5s9.5,18,39.5,28.5
		c46.5,16,65.5,40,66,75.5c0,46-35.5,79.5-105.5,79.5c-32,0-60.5-7.5-79-17.5L2848.45,358.996z"/>
</g>
<circle fill="#ED1F24" cx="2206.105" cy="110.526" r="42.5"/>
</svg>
